PathFileType	4	(X/Y/Z)	C:/Users/opensim2020/Desktop/walking_exp_matlab/subject06_walking14_straight_03.trc	
DataRate	CameraRate	NumFrames	NumMarkers	Units	OrigDataRate	OrigDataStartFrame	OrigNumFrames	
100.00	100.00	9	45	mm	100.00	2353	233	
Frame#	Time	LFHD			RFHD			LBHD			RBHD			C7			T10			CLAV			STRN			RBAK			LSHO			LUPA			LELB			LFRM			LWRA			LWRB			LFIN			RSHO			RUPA			RELB			RFRM			RWRA			RWRB			RFIN			LASI			RASI			LPSI			RPSI			LTHI			LKNE			LTIB			LANK			LHEE			LTOE			RTHI			RKNE			RTIB			RANK			RHEE			RTOE			*39			*40			*41			*42			*43			*44			
		X1	Y1	Z1	X2	Y2	Z2	X3	Y3	Z3	X4	Y4	Z4	X5	Y5	Z5	X6	Y6	Z6	X7	Y7	Z7	X8	Y8	Z8	X9	Y9	Z9	X10	Y10	Z10	X11	Y11	Z11	X12	Y12	Z12	X13	Y13	Z13	X14	Y14	Z14	X15	Y15	Z15	X16	Y16	Z16	X17	Y17	Z17	X18	Y18	Z18	X19	Y19	Z19	X20	Y20	Z20	X21	Y21	Z21	X22	Y22	Z22	X23	Y23	Z23	X24	Y24	Z24	X25	Y25	Z25	X26	Y26	Z26	X27	Y27	Z27	X28	Y28	Z28	X29	Y29	Z29	X30	Y30	Z30	X31	Y31	Z31	X32	Y32	Z32	X33	Y33	Z33	X34	Y34	Z34	X35	Y35	Z35	X36	Y36	Z36	X37	Y37	Z37	X38	Y38	Z38	X39	Y39	Z39	X40	Y40	Z40	X41	Y41	Z41	X42	Y42	Z42	X43	Y43	Z43	X44	Y44	Z44	X45	Y45	Z45	

146	1.450	1353.95007	536.77106	1653.66040	1484.97852	535.55975	1644.23254	1354.71411	401.35773	1603.99390	1484.33337	402.18008	1600.43945	1408.12207	396.11508	1445.13000	1420.11731	355.09726	1117.08398	1417.02295	504.59647	1366.21960	1411.61694	541.85474	1190.08533	1479.13818	314.73318	1277.65735	1252.12988	460.27905	1399.89185	1175.48901	501.00912	1204.60120	1159.54724	532.97729	1096.56592	1141.42126	636.41406	988.29236	1186.94275	754.41766	940.28998	1152.49707	711.97809	895.64844	1149.54126	795.39056	863.57166	1574.19995	447.19052	1399.84253	1656.46973	362.57547	1216.82056	1667.88147	344.47308	1094.39734	1684.89624	326.70535	974.87415	1652.73840	342.96829	823.05054	1694.28821	292.96494	840.74622	1692.81946	303.05106	755.49768	1311.73413	527.96698	950.74298	1533.41431	533.89960	961.24255	1345.71033	370.86118	983.81860	1514.14526	381.60895	983.75787	1267.44214	429.01166	642.42578	1292.75378	401.25748	480.18414	1306.21472	306.77509	238.75076	1358.70618	260.66928	74.55071	1403.61926	216.42484	66.63369	1360.77710	400.30692	37.98765	1603.07471	554.84863	637.92310	1577.72400	608.20313	523.53827	1575.55481	599.62708	261.85413	1534.19080	612.39813	76.15636	1485.24622	580.30249	52.06444	1549.22998	764.67065	44.79979	1412.49927	437.43161	1696.76550															 
147	1.460	1354.74207	547.98627	1652.08447	1485.65747	546.71643	1642.56946	1355.45190	412.49512	1602.43689	1484.81567	413.41574	1598.76917	1408.49695	407.05988	1443.66528	1420.60522	365.74799	1115.66565	1417.56763	515.60510	1364.63281	1411.96216	552.52045	1188.35486	1479.29346	325.69461	1276.16443	1252.74817	471.54941	1398.50269	1175.96680	513.04987	1203.62646	1160.02271	545.34906	1095.78455	1142.13123	651.21313	989.79999	1188.44250	769.80908	944.94391	1154.08789	728.67944	899.01508	1151.58215	812.93732	869.06421	1574.64990	457.98584	1398.24658	1656.67468	372.03073	1215.93591	1668.38379	353.06018	1093.66809	1685.52161	334.40506	974.31555	1653.76147	349.67065	822.29327	1695.08228	299.56564	840.42700	1693.85120	309.08273	755.13214	1311.49463	537.72803	949.00269	1533.39331	545.25543	959.69214	1346.47827	381.37241	982.12653	1514.88538	392.80811	982.35303	1267.49512	437.28033	641.12158	1293.29297	408.38800	479.06570	1306.61218	310.10538	239.06787	1358.72632	261.25677	75.57329	1403.67957	216.92215	68.11765	1361.04065	400.31042	38.03810	1603.85828	564.09186	635.57581	1577.66931	617.57758	521.33398	1576.11865	618.99902	260.05344	1535.50110	640.03992	75.01819	1486.78125	607.89081	51.09078	1548.03894	793.27686	45.45060	1413.26758	448.55707	1695.11133															 
148	1.470	1355.54187	559.16492	1650.56580	1486.23560	557.64722	1640.82520	1356.22717	423.73602	1600.81885	1485.75818	424.57053	1597.05994	1409.01392	418.20810	1442.16736	1420.94873	376.56451	1114.17822	1418.12598	526.64337	1362.87549	1412.39355	563.27588	1186.60486	1479.55652	336.55606	1274.61572	1253.42163	482.75443	1396.95288	1176.70801	525.08960	1202.51514	1160.46912	557.60919	1094.90247	1142.96240	665.26392	991.03967	1190.01880	784.72577	949.31085	1155.61792	744.98865	902.17401	1153.53577	830.02655	874.43524	1575.17322	468.83273	1396.64648	1656.99097	381.58838	1214.98071	1668.99536	361.91266	1092.82898	1686.47119	342.36554	973.70374	1654.92944	356.90805	821.41565	1696.00500	306.70190	840.01642	1695.33972	315.99933	754.87561	1311.63513	548.39929	947.51331	1533.40222	556.56293	958.09546	1347.23694	391.46988	980.39001	1515.69092	404.00864	980.83856	1267.67200	445.65756	639.88623	1293.77527	415.77069	477.94571	1307.02673	313.58896	239.51060	1358.77429	261.94373	76.72013	1404.16260	217.28984	70.08925	1360.79126	400.65442	37.91251	1604.83557	573.71552	633.33826	1577.81958	627.20135	519.24426	1576.87830	637.38519	258.60608	1536.63196	665.34259	74.63921	1488.44275	633.47260	50.43716	1546.67126	819.78467	46.54323	1414.05872	459.78754	1693.34448															 
149	1.480	1356.19507	570.23029	1649.13867	1487.04333	568.72339	1639.25049	1357.05237	434.96939	1599.21033	1486.59802	435.64145	1595.27588	1409.58398	429.41953	1440.65918	1421.32556	387.33578	1112.68201	1418.88855	537.79675	1361.33325	1412.95459	574.08185	1184.89380	1479.84351	347.49033	1273.06604	1254.08704	494.00702	1395.36487	1177.14966	536.78949	1201.25842	1161.07629	569.58545	1093.74817	1144.03320	678.82233	991.96246	1191.63074	799.06293	953.19635	1157.07483	760.68036	905.13190	1155.46436	846.52765	879.49750	1575.78955	479.71304	1395.03174	1657.42261	391.35785	1213.92236	1669.74463	371.05957	1091.84729	1687.38782	350.83932	972.87158	1656.34705	364.74722	820.51715	1697.01221	314.36996	839.44836	1696.77991	322.83469	754.23651	1311.88745	558.98859	946.00848	1533.54016	568.04724	956.61060	1348.16650	402.05569	978.54272	1516.46387	415.40149	979.31073	1267.96973	454.34167	638.63678	1294.25378	423.31833	476.92429	1307.41260	317.15097	239.95822	1358.80896	262.72775	77.99113	1404.04675	217.92201	71.78582	1360.75427	400.87900	37.87594	1605.87598	583.93079	631.52795	1577.95447	637.44098	517.64172	1577.56348	654.98846	257.78671	1537.45508	688.23743	74.54381	1489.47742	656.58521	49.49915	1545.14563	843.91742	48.27890	1414.89880	470.81830	1691.68433															 
150	1.490	1357.29163	581.46405	1647.70105	1487.62585	579.61243	1637.63037	1357.81824	446.20044	1597.52148	1487.30408	446.91684	1593.53357	1410.24695	440.61765	1439.15393	1421.69385	398.46951	1111.15112	1419.58325	548.90601	1359.67542	1413.57397	585.00024	1183.24744	1480.08655	358.69901	1271.50586	1254.86426	505.23196	1393.70813	1177.87024	548.36908	1199.90564	1161.76111	581.43884	1092.38208	1144.89343	692.25903	992.85303	1193.23755	812.84509	956.70203	1158.49915	775.94409	907.83588	1157.57214	862.27374	884.19330	1576.46082	490.58835	1393.44092	1657.94434	401.38455	1212.74622	1670.58704	380.56046	1090.83228	1688.24463	359.81375	971.92584	1657.80774	372.88565	819.40491	1698.18042	322.45160	838.77185	1698.38538	330.52155	753.53638	1311.70386	569.63049	944.31500	1533.82532	579.60870	955.16479	1348.87012	412.65506	976.81006	1517.29443	426.53223	977.73279	1268.28223	463.30960	637.39526	1294.59924	431.09512	475.83820	1307.60681	320.79068	240.66786	1358.60669	263.45682	79.41080	1403.83301	218.72169	73.69998	1360.72046	401.12463	37.78712	1606.95068	594.80988	630.09662	1577.90771	647.85974	516.26630	1578.12378	671.19904	257.07898	1537.90625	708.78021	74.38554	1489.96423	677.34430	48.79224	1543.59888	865.59741	50.63371	1415.75342	481.86618	1690.03833															 
151	1.500	1358.05713	592.56226	1646.28162	1490.09229	592.33990	1636.83728	1358.61694	457.39063	1595.93848	1488.14905	457.93219	1591.80151	1410.91858	451.92166	1437.65173	1422.09277	409.68454	1109.64709	1420.37122	560.07428	1358.08862	1414.19971	595.97614	1181.60547	1480.48560	369.62140	1269.98254	1255.61438	516.58801	1392.08435	1178.64746	559.84589	1198.36157	1162.63574	592.67590	1090.84326	1145.96875	705.21466	993.39618	1194.88599	826.07861	959.85333	1160.01917	790.45087	910.31781	1159.64795	877.42047	888.49451	1577.14685	501.55200	1391.89221	1658.60718	411.67877	1211.51184	1671.46985	390.49005	1089.69055	1689.39380	369.19864	970.93805	1659.44336	381.83533	818.35431	1699.45630	331.14429	837.98492	1700.09033	339.16092	752.90570	1312.00684	580.52661	942.70404	1534.21826	591.28442	953.81177	1349.78381	423.87534	974.90527	1518.07935	437.94583	976.28619	1268.67310	472.55548	636.14349	1294.92834	439.20572	474.74582	1307.54163	324.53482	241.46365	1358.24023	264.36768	81.04465	1403.40137	219.43123	76.10953	1360.64807	401.31079	37.71831	1607.84485	606.48645	629.01825	1578.41711	658.89087	515.37610	1578.31226	686.10376	256.37604	1537.97424	726.89667	74.10162	1490.14136	695.69562	47.83768	1541.90088	884.72748	53.77739	1416.64490	492.86838	1688.42505															 
152	1.510	1358.98328	603.66711	1644.90991	1490.65979	603.00366	1635.29944	1359.48914	468.59744	1594.35034	1488.90503	469.17538	1590.13477	1411.69189	463.13229	1436.27368	1422.58472	420.97147	1108.14697	1421.23474	571.36237	1356.62268	1415.01538	607.14087	1180.07947	1480.85583	380.93634	1268.42822	1256.47693	528.04883	1390.57446	1179.52588	571.07715	1196.75916	1163.57336	603.64685	1089.19519	1147.22913	717.46661	993.54370	1196.62939	838.82886	962.83466	1161.42017	804.38934	912.47540	1161.61621	891.92657	892.44781	1577.91675	512.50269	1390.42651	1659.34680	422.25436	1210.19995	1672.48633	400.77335	1088.51868	1690.61926	379.00946	969.88715	1661.02307	391.08795	817.13696	1700.90662	340.40958	837.15607	1701.83167	348.18323	752.07623	1312.13416	591.64734	940.94946	1534.81824	602.96863	952.56061	1350.62463	435.11969	973.19775	1518.87732	449.57712	974.93646	1269.14124	482.13281	634.89587	1295.22693	447.55515	473.65369	1307.32593	328.42749	242.48790	1357.57166	265.30856	83.03847	1402.38831	220.18700	78.56298	1360.47205	401.55359	37.69557	1608.60938	618.88165	628.37677	1578.74792	670.21094	514.69690	1578.34851	699.85107	255.44963	1537.56921	742.56781	73.36823	1490.24756	711.59344	46.62635	1539.87744	900.98621	57.11146	1417.50378	503.90808	1686.85327															 
153	1.520	1360.07825	614.84717	1643.62024	1491.92908	614.54688	1634.11060	1360.35022	479.75082	1592.82422	1489.72180	480.27524	1588.60986	1412.55579	474.60138	1434.74365	1423.13025	432.53293	1106.66992	1422.13501	582.65173	1355.23279	1415.91528	618.46265	1178.67114	1481.26758	392.32999	1266.90027	1257.31812	539.56128	1389.11597	1180.44604	582.12018	1195.15210	1164.51868	614.39020	1087.48486	1148.74109	729.40302	993.74799	1198.40979	850.90991	965.04987	1162.97070	817.62976	914.25781	1163.59814	905.56696	895.89764	1578.73889	523.53394	1389.00403	1660.16992	433.03928	1208.90149	1673.47192	411.41916	1087.32275	1691.86621	389.28101	968.82086	1662.80542	401.06314	815.99506	1702.39429	350.26587	836.25916	1703.67969	357.75024	751.22046	1312.66016	603.06097	939.31470	1535.48474	614.81995	951.49164	1351.43286	446.30103	971.68396	1519.80591	461.18375	973.66931	1269.71313	491.98578	633.64117	1295.49109	456.37100	472.52139	1306.86389	332.81177	243.62708	1356.52832	266.41483	85.21381	1401.18274	221.02538	81.65465	1360.52417	401.59320	37.64280	1609.05579	631.60773	627.96570	1578.63855	682.01617	514.28845	1578.23560	712.14191	254.22092	1536.89880	756.00653	72.44923	1489.79565	724.92395	45.55212	1537.86328	914.36328	59.26288	1418.34949	514.86932	1685.35229															 
154	1.530	1360.99231	625.90094	1642.41516	1492.84363	625.68768	1632.93921	1361.22498	490.89792	1591.45898	1490.57825	491.41449	1587.25940	1413.35474	485.60730	1433.48486	1423.74451	444.17719	1105.20435	1423.09680	594.02167	1353.98157	1416.87085	629.92682	1177.42773	1481.91870	403.66028	1265.40417	1258.14807	551.12372	1387.75891	1181.45288	592.97943	1193.48096	1165.53528	624.88251	1085.82642	1150.46240	740.26849	993.39093	1200.14526	862.50226	966.85590	1164.58862	830.20605	915.60315	1165.50012	918.50592	898.71136	1579.61108	534.64471	1387.72925	1661.07202	444.04382	1207.63574	1674.57019	422.37955	1086.14124	1693.18530	399.99442	967.77545	1664.63342	411.50134	814.89453	1703.94324	360.63727	835.31580	1705.39819	367.72040	750.09399	1313.38611	614.79822	937.68060	1536.38794	626.75189	950.47693	1352.30554	458.02524	970.13141	1520.92908	472.90317	972.63245	1270.38574	502.31461	632.49817	1295.81702	465.65280	471.41901	1306.36877	337.68918	244.87778	1355.27698	267.71262	87.73402	1399.51965	222.11899	84.97978	1360.23779	401.77490	37.61358	1609.28235	644.92700	627.84955	1578.12146	694.55444	514.55676	1577.86145	723.49292	253.12428	1536.14063	766.83649	71.55315	1489.38123	734.85980	45.51542	1535.96033	924.53674	57.14439	1419.21643	525.87048	1684.02734															 
